  <svg
    xmlns="http://www.w3.org/2000/svg"
    x="0px"
    y="0px"
    width="40"
    height="40"
    viewBox="0 0 172 172"
    style="fill: #000000"
  >
    <g
      fill="none"
      fill-rule="nonzero"
      stroke="none"
      stroke-width="1"
      stroke-linecap="butt"
      stroke-linejoin="miter"
      stroke-miterlimit="10"
      stroke-dasharray=""
      stroke-dashoffset="0"
      font-family="none"
      font-weight="none"
      font-size="none"
      text-anchor="none"
      style="mix-blend-mode: normal"
    >
      <path d="M0,172v-172h172v172z" fill="none"></path>
      <g>
        <path
          d="M28.1091,139.75l-0.8213,-0.0344c-14.0997,-0.3569 -25.1378,-11.6788 -25.1378,-25.7656c0,-10.5866 6.3597,-19.9778 16.1981,-23.9338l1.5781,-0.6321l-0.258,-1.6813c-0.2193,-1.4491 -0.3182,-2.6746 -0.3182,-3.8528c0,-14.2287 11.5713,-25.8 25.8,-25.8c2.2231,0 4.4935,0.3096 6.7553,0.9245l2.1672,0.5891l0.4902,-2.1887c3.3454,-14.792 16.2712,-25.1249 31.4373,-25.1249c11.6014,0 22.36,6.2952 28.079,16.426l0.7138,1.2599l1.4362,-0.1849c1.3674,-0.1806 2.752,-0.301 4.171,-0.301c16.3056,0 30.057,12.1991 31.9963,28.3843l0.1247,1.0793l0.946,0.5375c10.105,5.7319 16.383,16.4776 16.383,28.0532c0,17.7848 -14.4652,32.25 -32.25,32.25h-109.4909z"
          fill="#c2e8ff"
        ></path>
        <path
          d="M86,34.4c10.8231,0 20.8679,5.8738 26.2085,15.3338l1.4233,2.5198l2.8724,-0.3698c1.5007,-0.1935 2.7348,-0.2838 3.8958,-0.2838c15.2134,0 28.0532,11.3864 29.8592,26.488l0.258,2.1586l1.892,1.0707c9.4299,5.3449 15.2908,15.3811 15.2908,26.1827c0,16.598 -13.502,30.1 -30.1,30.1h-108.8889l-1.3717,-0.0344c-12.9172,-0.3268 -23.0394,-10.7027 -23.0394,-23.6156c0,-9.7008 5.8265,-18.3137 14.8479,-21.9386l3.1562,-1.2685l-0.5031,-3.3626c-0.2064,-1.3459 -0.301,-2.4682 -0.301,-3.5303c0,-13.0419 10.6081,-23.65 23.65,-23.65c2.0253,0 4.1108,0.2881 6.1963,0.8514l4.3301,1.1739l0.989,-4.3774c3.1175,-13.8073 15.179,-23.4479 29.3346,-23.4479M86,30.1c-16.383,0 -30.0656,11.4638 -33.5314,26.8019c-2.3349,-0.6321 -4.7816,-1.0019 -7.3186,-1.0019c-15.437,0 -27.95,12.513 -27.95,27.95c0,1.4233 0.1419,2.8079 0.344,4.171c-10.277,4.1323 -17.544,14.1728 -17.544,25.929c0,15.1962 12.1303,27.5286 27.2319,27.9156v0.0344h110.3681c18.9974,0 34.4,-15.4026 34.4,-34.4c0,-12.8398 -7.0477,-24.0155 -17.4709,-29.9237c-2.0425,-17.0495 -16.5292,-30.2763 -34.1291,-30.2763c-1.5093,0 -2.9885,0.129 -4.4462,0.3182c-5.9039,-10.449 -17.0968,-17.5182 -29.9538,-17.5182z"
          fill="#7496c4"
        ></path>
      </g>
    </g>
  </svg>
