  <svg
    xmlns="http://www.w3.org/2000/svg"
    x="0px"
    y="0px"
    width="40"
    height="40"
    viewBox="0 0 172 172"
    style="fill: #000000"
  >
    <g
      fill="none"
      fill-rule="nonzero"
      stroke="none"
      stroke-width="1"
      stroke-linecap="butt"
      stroke-linejoin="miter"
      stroke-miterlimit="10"
      stroke-dasharray=""
      stroke-dashoffset="0"
      font-family="none"
      font-weight="none"
      font-size="none"
      text-anchor="none"
      style="mix-blend-mode: normal"
    >
      <path d="M0,172v-172h172v172z" fill="none"></path>
      <g>
        <path d="M69.875,119.325h32.25v27.95h-32.25z" fill="#b0c1d4"></path>
        <path
          d="M101.05,120.4v25.8h-30.1v-25.8h30.1M103.2,118.25h-34.4v30.1h34.4v-30.1z"
          fill="#66798f"
        ></path>
        <path d="M5.375,16.125h161.25v113.95h-161.25z" fill="#c2e8ff"></path>
        <path
          d="M165.55,17.2v111.8h-159.1v-111.8h159.1M167.7,15.05h-163.4v116.1h163.4v-116.1z"
          fill="#66798f"
        ></path>
        <path d="M6.45,113.95h159.1v15.05h-159.1z" fill="#66798f"></path>
        <path
          d="M39.8223,155.875c0.54395,-6.01785 5.61795,-10.75 11.7777,-10.75h68.8c6.1576,0 11.23375,4.73215 11.7777,10.75z"
          fill="#b0c1d4"
        ></path>
        <path
          d="M120.4,146.2c5.19225,0 9.53525,3.70015 10.535,8.6h-89.87c0.99975,-4.89985 5.34275,-8.6 10.535,-8.6h68.8M120.4,144.05h-68.8c-7.1251,0 -12.9,5.7749 -12.9,12.9v0h94.6v0c0,-7.1251 -5.7749,-12.9 -12.9,-12.9z"
          fill="#66798f"
        ></path>
        <path
          d="M91.29256,43.69175c-1.78487,1.91558 -1.10353,5.4515 1.52181,7.8977c2.62534,2.4462 6.20053,2.87636 7.98539,0.96078c1.78487,-1.91558 1.10353,-5.4515 -1.52181,-7.8977c-2.62534,-2.4462 -6.20053,-2.87636 -7.98539,-0.96078z"
          fill="#ffffff"
        ></path>
        <path
          d="M111.8,88.15v-25.8c0,-14.25235 -11.55195,-25.8 -25.8,-25.8c-14.24805,0 -25.8,11.54765 -25.8,25.8v25.8c0,4.7472 -3.8528,8.6 -8.6,8.6h68.8c-4.7472,0 -8.6,-3.8528 -8.6,-8.6zM93.0649,43.61275c1.118,-1.118 3.3884,-0.66435 5.06755,1.0148c1.67915,1.67915 2.1328,3.94955 1.0148,5.06755c-1.118,1.118 -3.3884,0.66435 -5.06755,-1.0148c-1.67915,-1.67915 -2.1371,-3.94955 -1.0148,-5.06755z"
          fill="#36404d"
        ></path>
        <path d="M146.2,120.4h12.9v4.3h-12.9z" fill="#ffeea3"></path>
        <path
          d="M77.55265,53.75c-4.83396,0 -8.75265,5.22589 -8.75265,11.67235c0,6.44646 3.91869,11.67235 8.75265,11.67235c4.83396,0 8.75265,-5.22589 8.75265,-11.67235c0,-6.44646 -3.91869,-11.67235 -8.75265,-11.67235z"
          fill="#ffffff"
        ></path>
        <path
          d="M76.68405,62.35c-1.58282,0 -2.86595,1.92518 -2.86595,4.3c0,2.37482 1.28313,4.3 2.86595,4.3c1.58282,0 2.86595,-1.92518 2.86595,-4.3c0,-2.37482 -1.28313,-4.3 -2.86595,-4.3z"
          fill="#36404d"
        ></path>
        <path
          d="M94.44735,53.75c-4.83396,0 -8.75265,5.22589 -8.75265,11.67235c0,6.44646 3.91869,11.67235 8.75265,11.67235c4.83396,0 8.75265,-5.22589 8.75265,-11.67235c0,-6.44646 -3.91869,-11.67235 -8.75265,-11.67235z"
          fill="#ffffff"
        ></path>
        <path
          d="M95.31595,62.35c-1.58282,0 -2.86595,1.92518 -2.86595,4.3c0,2.37482 1.28313,4.3 2.86595,4.3c1.58282,0 2.86595,-1.92518 2.86595,-4.3c0,-2.37482 -1.28313,-4.3 -2.86595,-4.3z"
          fill="#36404d"
        ></path>
        <path
          d="M103.2,80.625c0,5.34275 -9.9717,9.675 -17.2,9.675c-7.2283,0 -17.2,-4.33225 -17.2,-9.675c2.71545,-5.2632 12.6119,-9.675 17.2,-9.675c4.5881,0 14.47595,4.47845 17.2,9.675z"
          fill="#ffeea3"
        ></path>
      </g>
    </g>
  </svg>
