  <svg
    xmlns="http://www.w3.org/2000/svg"
    x="0px"
    y="0px"
    width="40"
    height="40"
    viewBox="0 0 172 172"
    style="fill: #000000"
  >
    <g
      fill="none"
      fill-rule="nonzero"
      stroke="none"
      stroke-width="1"
      stroke-linecap="butt"
      stroke-linejoin="miter"
      stroke-miterlimit="10"
      stroke-dasharray=""
      stroke-dashoffset="0"
      font-family="none"
      font-weight="none"
      font-size="none"
      text-anchor="none"
      style="mix-blend-mode: normal"
    >
      <path d="M0,172v-172h172v172z" fill="none"></path>
      <g>
        <path
          d="M86,152.65c-43.0301,0 -65.8717,-7.0907 -67.9013,-21.0829l-0.1118,-0.7697c-7.224,-49.8585 -11.5369,-81.6097 -11.5369,-84.9293c0,-17.1011 28.251,-26.5181 79.55,-26.5181c51.299,0 79.55,9.417 79.55,26.5181c0,5.1987 -9.8384,73.3623 -11.6487,85.6861c-2.0597,14.0051 -24.9013,21.0958 -67.9013,21.0958z"
          fill="#b0c1d4"
        ></path>
        <path
          d="M86,21.5c49.1877,0 77.4,8.8795 77.4,24.3681c0,4.3946 -8.2044,62.0662 -11.6272,85.398c-0.3569,2.4209 -0.9503,6.4672 -8.1528,10.4533c-10.5393,5.8265 -29.9237,8.7806 -57.62,8.7806c-27.7135,0 -47.1065,-2.9584 -57.6372,-8.7892c-7.1982,-3.9861 -7.783,-8.0324 -8.1356,-10.4619l-0.1376,-0.9503c-7.0864,-48.9254 -11.4896,-81.2786 -11.4896,-84.4305c0,-15.4886 28.2123,-24.3681 77.4,-24.3681M86,17.2c-80.969,0 -81.7,23.0265 -81.7,28.6681c0,5.6416 10.8489,80.3154 11.6702,86c0.8256,5.6846 3.2852,22.9319 70.0298,22.9319c66.7446,0 69.1956,-17.2602 70.0298,-22.9319c0.8342,-5.6717 11.6702,-80.2724 11.6702,-86c0,-5.7276 -0.731,-28.6681 -81.7,-28.6681z"
          fill="#66798f"
        ></path>
        <path
          d="M86,131.15c-33.4927,0 -48.2589,-8.4925 -50.9077,-16.4346c-1.1954,-3.5604 -3.9173,-11.6702 -7.0563,-50.0434c-0.4429,-5.3707 0.8428,-9.6105 3.9302,-12.9602c8.7935,-9.546 31.1664,-10.8618 54.0338,-10.8618c22.8674,0 45.2403,1.3158 54.0338,10.8575c3.0874,3.3497 4.3731,7.5895 3.9345,12.9602c-3.1304,38.3431 -5.8609,46.4744 -7.0262,49.9402c-2.666,8.0539 -17.4193,16.5421 -50.9421,16.5421z"
          fill="#8bb7f0"
        ></path>
        <path
          d="M86,43c21.3065,0 44.1997,1.2083 52.4514,10.1652c2.6574,2.8853 3.7582,6.5876 3.3712,11.3305c-3.1046,38.0765 -5.8781,46.3239 -6.9574,49.5489c-2.2876,6.8972 -16.4518,14.9554 -48.8652,14.9554c-32.3833,0 -46.5647,-8.0625 -48.8996,-15.0586c-1.1352,-3.3884 -3.8012,-11.3176 -6.923,-49.4457c-0.387,-4.7386 0.7138,-8.4452 3.3712,-11.3305c8.2517,-8.9569 31.1449,-10.1652 52.4514,-10.1652M86,38.7c-34.6494,0 -61.9802,3.3325 -60.1097,26.144c3.1949,38.9666 5.9899,47.0592 7.1638,50.5508c2.5499,7.6497 15.4327,17.9052 52.9459,17.9052c37.5132,0 50.4132,-10.2555 52.9459,-17.9052c1.1696,-3.4916 3.9818,-11.5799 7.1638,-50.5508c1.8705,-22.8115 -25.4603,-26.144 -60.1097,-26.144z"
          fill="#4e7ab5"
        ></path>
        <path
          d="M81.7,98.9h8.6v8.6h-8.6zM103.2,98.9h8.6v8.6h-8.6zM60.2,98.9h8.6v8.6h-8.6z"
          fill="#ffffff"
        ></path>
      </g>
    </g>
  </svg>
