  <svg
    xmlns="http://www.w3.org/2000/svg"
    x="0px"
    y="0px"
    width="48"
    height="48"
    viewBox="0 0 172 172"
    style="fill: #000000"
  >
    <g
      fill="none"
      fill-rule="nonzero"
      stroke="none"
      stroke-width="1"
      stroke-linecap="butt"
      stroke-linejoin="miter"
      stroke-miterlimit="10"
      stroke-dasharray=""
      stroke-dashoffset="0"
      font-family="none"
      font-weight="none"
      font-size="none"
      text-anchor="none"
      style="mix-blend-mode: normal"
    >
      <path d="M0,172v-172h172v172z" fill="none"></path>
      <g>
        <path
          d="M107.5,154.08333h-75.25c-7.91558,0 -14.33333,-6.41775 -14.33333,-14.33333v-75.25c0,-7.91558 6.41775,-14.33333 14.33333,-14.33333h75.25c7.91558,0 14.33333,6.41775 14.33333,14.33333v75.25c0,7.91558 -6.41775,14.33333 -14.33333,14.33333zM100.33333,121.83333v-39.41667c0,-5.93758 -4.81242,-10.75 -10.75,-10.75h-39.41667c-5.93758,0 -10.75,4.81242 -10.75,10.75v39.41667c0,5.93758 4.81242,10.75 10.75,10.75h39.41667c5.93758,0 10.75,-4.81242 10.75,-10.75z"
          fill="#ff8800"
        ></path>
        <path
          d="M121.83333,96.75v28.66667h-22.145c0.43,-1.11083 0.645,-2.32917 0.645,-3.58333v-25.08333z"
          fill="#000000"
          opacity="0.07"
        ></path>
        <path
          d="M121.83333,98.54167v25.08333h-21.67917c0.14333,-0.57333 0.17917,-1.1825 0.17917,-1.79167v-23.29167z"
          fill="#000000"
          opacity="0.07"
        ></path>
        <path
          d="M139.75,17.91667h-75.25c-7.91917,0 -14.33333,6.41417 -14.33333,14.33333v17.91667h21.5c0,-5.94833 4.80167,-10.75 10.75,-10.75h39.41667c5.94833,0 10.75,4.80167 10.75,10.75v39.41667c0,5.94833 -4.80167,10.75 -10.75,10.75h-39.41667c-5.94833,0 -10.75,-4.80167 -10.75,-10.75v-17.91667h-21.5v35.83333c0,7.91917 6.41417,14.33333 14.33333,14.33333h75.25c7.91917,0 14.33333,-6.41417 14.33333,-14.33333v-75.25c0,-7.91917 -6.41417,-14.33333 -14.33333,-14.33333z"
          fill="#3498db"
        ></path>
        <path
          d="M72.31167,46.58333c-0.43,1.11083 -0.645,2.32917 -0.645,3.58333h-21.57167v-3.58333z"
          fill="#000000"
          opacity="0.05"
        ></path>
        <path
          d="M71.84583,48.375c-0.14333,0.57333 -0.17917,1.1825 -0.17917,1.79167h-21.57167v-1.79167z"
          fill="#000000"
          opacity="0.07"
        ></path>
        <rect
          x="-19.999"
          y="-21"
          transform="rotate(-180) scale(3.58333,3.58333)"
          width="6.019"
          height="1"
          fill="#000000"
          opacity="0.05"
        ></rect>
        <rect
          x="-19.999"
          y="-20.5"
          transform="rotate(-180) scale(3.58333,3.58333)"
          width="6.019"
          height="0.5"
          fill="#000000"
          opacity="0.07"
        ></rect>
      </g>
    </g>
  </svg>