  <svg
    xmlns="http://www.w3.org/2000/svg"
    x="0px"
    y="0px"
    width="40"
    height="40"
    viewBox="0 0 172 172"
    style="fill: #000000"
  >
    <g
      fill="none"
      fill-rule="nonzero"
      stroke="none"
      stroke-width="1"
      stroke-linecap="butt"
      stroke-linejoin="miter"
      stroke-miterlimit="10"
      stroke-dasharray=""
      stroke-dashoffset="0"
      font-family="none"
      font-weight="none"
      font-size="none"
      text-anchor="none"
      style="mix-blend-mode: normal"
    >
      <path d="M0,172v-172h172v172z" fill="none"></path>
      <g>
        <path
          d="M58.6735,115.8334c7.5121,-6.7768 17.1355,-10.4834 27.3265,-10.4834c10.191,0 19.8144,3.7066 27.3265,10.4834l-27.3265,27.3265z"
          fill="#8bb7f0"
        ></path>
        <path
          d="M86,107.5c8.8881,0 17.3204,2.9756 24.1574,8.4624l-24.1574,24.1574l-24.1574,-24.1574c6.837,-5.4868 15.2693,-8.4624 24.1574,-8.4624M86,103.2c-11.8723,0 -22.6223,4.8117 -30.4053,12.5947l30.4053,30.4053l30.4053,-30.4053c-7.783,-7.783 -18.533,-12.5947 -30.4053,-12.5947z"
          fill="#4e7ab5"
        ></path>
        <path
          d="M31.2911,88.451c14.835,-14.0739 34.1807,-21.801 54.7089,-21.801c20.5282,0 39.8696,7.7228 54.7132,21.7967l-12.169,12.169c-11.5885,-10.8274 -26.6084,-16.7657 -42.5442,-16.7657c-15.9358,0 -30.9557,5.9383 -42.5442,16.7657z"
          fill="#8bb7f0"
        ></path>
        <path
          d="M86,68.8c19.2339,0 37.3971,6.9703 51.6086,19.7112l-9.1375,9.1375c-11.7605,-10.3157 -26.6815,-15.9487 -42.4711,-15.9487c-15.7896,0 -30.7106,5.633 -42.4668,15.9487l-9.1375,-9.1375c14.2072,-12.7409 32.3704,-19.7112 51.6043,-19.7112M86,64.5c-22.5621,0 -42.9871,9.1461 -57.7705,23.9295l15.2048,15.2048c10.8919,-10.8962 25.9419,-17.6343 42.5657,-17.6343c16.6238,0 31.6738,6.7381 42.5657,17.6343l15.2048,-15.2048c-14.7834,-14.7834 -35.2084,-23.9295 -57.7705,-23.9295z"
          fill="#4e7ab5"
        ></path>
        <g>
          <path
            d="M155.918,73.2419c-18.9028,-18.1331 -43.645,-28.0919 -69.918,-28.0919c-26.273,0 -51.0152,9.9588 -69.918,28.0919l-12.1647,-12.1647c22.1493,-21.3839 51.2087,-33.1272 82.0827,-33.1272c30.874,0 59.9334,11.7433 82.0827,33.1272z"
            fill="#8bb7f0"
          ></path>
          <path
            d="M86,30.1c29.5754,0 57.4609,10.9822 78.9996,31.0202l-9.1289,9.1289c-19.0963,-17.6042 -43.7439,-27.2491 -69.8707,-27.2491c-26.1268,0 -50.7744,9.6449 -69.8707,27.2491l-9.1289,-9.1289c21.5387,-20.038 49.4242,-31.0202 78.9996,-31.0202M86,25.8c-33.2476,0 -63.3476,13.4762 -85.1357,35.2643l15.2048,15.2048c17.8966,-17.9009 42.6216,-28.9691 69.9309,-28.9691c27.3093,0 52.0343,11.0682 69.9309,28.9691l15.2048,-15.2048c-21.7881,-21.7881 -51.8881,-35.2643 -85.1357,-35.2643z"
            fill="#4e7ab5"
          ></path>
        </g>
      </g>
    </g>
  </svg>